<?xml version="1.0" encoding="UTF-8" standalone="no"?>
<!DOCTYPE svg PUBLIC "-//W3C//DTD SVG 1.1//EN" "http://www.w3.org/Graphics/SVG/1.1/DTD/svg11.dtd">
<svg width="100%" height="100%" viewBox="0 0 580 200" version="1.1" xmlns="http://www.w3.org/2000/svg" xmlns:xlink="http://www.w3.org/1999/xlink" xml:space="preserve" xmlns:serif="http://www.serif.com/" style="fill-rule:evenodd;clip-rule:evenodd;stroke-linejoin:round;stroke-miterlimit:2;">
    <g>
        <path d="M37,10C37,7.24 34.76,5 32,5L10,5C7.24,5 5,7.24 5,10L5,32C5,34.76 7.24,37 10,37L32,37C34.76,37 37,34.76 37,32L37,10Z" style="fill:rgb(132,158,175);stroke:rgb(140,143,152);stroke-width:1px;"/>
        <path d="M77,10C77,7.24 74.76,5 72,5L50,5C47.24,5 45,7.24 45,10L45,32C45,34.76 47.24,37 50,37L72,37C74.76,37 77,34.76 77,32L77,10Z" style="fill:rgb(132,158,175);stroke:rgb(140,143,152);stroke-width:1px;"/>
        <path d="M197,10C197,7.24 194.76,5 192,5L170,5C167.24,5 165,7.24 165,10L165,32C165,34.76 167.24,37 170,37L192,37C194.76,37 197,34.76 197,32L197,10Z" style="fill:rgb(132,158,175);stroke:rgb(140,143,152);stroke-width:1px;"/>
        <path d="M357,10C357,7.24 354.76,5 352,5L330,5C327.24,5 325,7.24 325,10L325,32C325,34.76 327.24,37 330,37L352,37C354.76,37 357,34.76 357,32L357,10Z" style="fill:rgb(132,158,175);stroke:rgb(140,143,152);stroke-width:1px;"/>
        <path d="M477,10C477,7.24 474.76,5 472,5L450,5C447.24,5 445,7.24 445,10L445,32C445,34.76 447.24,37 450,37L472,37C474.76,37 477,34.76 477,32L477,10Z" style="fill:rgb(132,158,175);stroke:rgb(140,143,152);stroke-width:1px;"/>
        <path d="M577,10C577,7.24 574.76,5 572,5L530,5C527.24,5 525,7.24 525,10L525,32C525,34.76 527.24,37 530,37L572,37C574.76,37 577,34.76 577,32L577,10Z" style="fill:rgb(132,158,175);stroke:rgb(140,143,152);stroke-width:1px;"/>
        <path d="M57,50C57,47.24 54.76,45 52,45L10,45C7.24,45 5,47.24 5,50L5,72C5,74.76 7.24,77 10,77L52,77C54.76,77 57,74.76 57,72L57,50Z" style="fill:rgb(132,158,175);stroke:rgb(140,143,152);stroke-width:1px;"/>
        <path d="M577,50C577,47.24 574.76,45 572,45L550,45C547.24,45 545,47.24 545,50L545,72C545,74.76 547.24,77 550,77L572,77C574.76,77 577,74.76 577,72L577,50Z" style="fill:rgb(132,158,175);stroke:rgb(140,143,152);stroke-width:1px;"/>
        <path d="M66.6,90C66.6,87.24 64.36,85 61.6,85L10,85C7.24,85 5,87.24 5,90L5,112C5,114.76 7.24,117 10,117L61.6,117C64.36,117 66.6,114.76 66.6,112L66.6,90Z" style="fill:rgb(132,158,175);stroke:rgb(140,143,152);stroke-width:1px;"/>
        <path d="M106.6,90C106.6,87.24 104.36,85 101.6,85L79.6,85C76.84,85 74.6,87.24 74.6,90L74.6,112C74.6,114.76 76.84,117 79.6,117L101.6,117C104.36,117 106.6,114.76 106.6,112L106.6,90Z" style="fill:rgb(132,158,175);stroke:rgb(140,143,152);stroke-width:1px;"/>
        <path d="M226.6,90C226.6,87.24 224.36,85 221.6,85L199.6,85C196.84,85 194.6,87.24 194.6,90L194.6,112C194.6,114.76 196.84,117 199.6,117L221.6,117C224.36,117 226.6,114.76 226.6,112L226.6,90Z" style="fill:rgb(132,158,175);stroke:rgb(140,143,152);stroke-width:1px;"/>
        <path d="M386.6,90C386.6,87.24 384.36,85 381.6,85L359.6,85C356.84,85 354.6,87.24 354.6,90L354.6,112C354.6,114.76 356.84,117 359.6,117L381.6,117C384.36,117 386.6,114.76 386.6,112L386.6,90Z" style="fill:rgb(132,158,175);stroke:rgb(140,143,152);stroke-width:1px;"/>
        <path d="M506.6,90C506.6,87.24 504.36,85 501.6,85L479.6,85C476.84,85 474.6,87.24 474.6,90L474.6,112C474.6,114.76 476.84,117 479.6,117L501.6,117C504.36,117 506.6,114.76 506.6,112L506.6,90Z" style="fill:rgb(132,158,175);stroke:rgb(140,143,152);stroke-width:1px;"/>
        <path d="M576.2,90C576.2,87.24 573.96,85 571.2,85L519.6,85C516.84,85 514.6,87.24 514.6,90L514.6,112C514.6,114.76 516.84,117 519.6,117L571.2,117C573.96,117 576.2,114.76 576.2,112L576.2,90Z" style="fill:rgb(132,158,175);stroke:rgb(140,143,152);stroke-width:1px;"/>
        <path d="M87,130C87,127.24 84.76,125 82,125L10,125C7.24,125 5,127.24 5,130L5,152C5,154.76 7.24,157 10,157L82,157C84.76,157 87,154.76 87,152L87,130Z" style="fill:rgb(132,158,175);stroke:rgb(140,143,152);stroke-width:1px;"/>
        <path d="M577,130C577,127.24 574.76,125 572,125L500,125C497.24,125 495,127.24 495,130L495,152C495,154.76 497.24,157 500,157L572,157C574.76,157 577,154.76 577,152L577,130Z" style="fill:rgb(132,158,175);stroke:rgb(140,143,152);stroke-width:1px;"/>
        <path d="M407,170C407,167.24 404.76,165 402,165L180,165C177.24,165 175,167.24 175,170L175,192C175,194.76 177.24,197 180,197L402,197C404.76,197 407,194.76 407,192L407,170Z" style="fill:rgb(132,158,175);stroke:rgb(140,143,152);stroke-width:1px;"/>
    </g>
    <g>
        <path d="M117,10C117,7.24 114.76,5 112,5L90,5C87.24,5 85,7.24 85,10L85,32C85,34.76 87.24,37 90,37L112,37C114.76,37 117,34.76 117,32L117,10Z" style="stroke:rgb(140,143,152);stroke-width:1px;"/>
        <path d="M157,10C157,7.24 154.76,5 152,5L130,5C127.24,5 125,7.24 125,10L125,32C125,34.76 127.24,37 130,37L152,37C154.76,37 157,34.76 157,32L157,10Z" style="stroke:rgb(140,143,152);stroke-width:1px;"/>
        <path d="M237,10C237,7.24 234.76,5 232,5L210,5C207.24,5 205,7.24 205,10L205,32C205,34.76 207.24,37 210,37L232,37C234.76,37 237,34.76 237,32L237,10Z" style="stroke:rgb(140,143,152);stroke-width:1px;"/>
        <path d="M277,10C277,7.24 274.76,5 272,5L250,5C247.24,5 245,7.24 245,10L245,32C245,34.76 247.24,37 250,37L272,37C274.76,37 277,34.76 277,32L277,10Z" style="stroke:rgb(140,143,152);stroke-width:1px;"/>
        <path d="M317,10C317,7.24 314.76,5 312,5L290,5C287.24,5 285,7.24 285,10L285,32C285,34.76 287.24,37 290,37L312,37C314.76,37 317,34.76 317,32L317,10Z" style="stroke:rgb(140,143,152);stroke-width:1px;"/>
        <path d="M397,10C397,7.24 394.76,5 392,5L370,5C367.24,5 365,7.24 365,10L365,32C365,34.76 367.24,37 370,37L392,37C394.76,37 397,34.76 397,32L397,10Z" style="stroke:rgb(140,143,152);stroke-width:1px;"/>
        <path d="M437,10C437,7.24 434.76,5 432,5L410,5C407.24,5 405,7.24 405,10L405,32C405,34.76 407.24,37 410,37L432,37C434.76,37 437,34.76 437,32L437,10Z" style="stroke:rgb(140,143,152);stroke-width:1px;"/>
        <path d="M517,10C517,7.24 514.76,5 512,5L490,5C487.24,5 485,7.24 485,10L485,32C485,34.76 487.24,37 490,37L512,37C514.76,37 517,34.76 517,32L517,10Z" style="stroke:rgb(140,143,152);stroke-width:1px;"/>
        <path d="M146.6,90C146.6,87.24 144.36,85 141.6,85L119.6,85C116.84,85 114.6,87.24 114.6,90L114.6,112C114.6,114.76 116.84,117 119.6,117L141.6,117C144.36,117 146.6,114.76 146.6,112L146.6,90Z" style="stroke:rgb(140,143,152);stroke-width:1px;"/>
        <path d="M186.6,90C186.6,87.24 184.36,85 181.6,85L159.6,85C156.84,85 154.6,87.24 154.6,90L154.6,112C154.6,114.76 156.84,117 159.6,117L181.6,117C184.36,117 186.6,114.76 186.6,112L186.6,90Z" style="stroke:rgb(140,143,152);stroke-width:1px;"/>
        <path d="M266.6,90C266.6,87.24 264.36,85 261.6,85L239.6,85C236.84,85 234.6,87.24 234.6,90L234.6,112C234.6,114.76 236.84,117 239.6,117L261.6,117C264.36,117 266.6,114.76 266.6,112L266.6,90Z" style="stroke:rgb(140,143,152);stroke-width:1px;"/>
        <path d="M306.6,90C306.6,87.24 304.36,85 301.6,85L279.6,85C276.84,85 274.6,87.24 274.6,90L274.6,112C274.6,114.76 276.84,117 279.6,117L301.6,117C304.36,117 306.6,114.76 306.6,112L306.6,90Z" style="stroke:rgb(140,143,152);stroke-width:1px;"/>
        <path d="M346.6,90C346.6,87.24 344.36,85 341.6,85L319.6,85C316.84,85 314.6,87.24 314.6,90L314.6,112C314.6,114.76 316.84,117 319.6,117L341.6,117C344.36,117 346.6,114.76 346.6,112L346.6,90Z" style="stroke:rgb(140,143,152);stroke-width:1px;"/>
        <path d="M426.6,90C426.6,87.24 424.36,85 421.6,85L399.6,85C396.84,85 394.6,87.24 394.6,90L394.6,112C394.6,114.76 396.84,117 399.6,117L421.6,117C424.36,117 426.6,114.76 426.6,112L426.6,90Z" style="stroke:rgb(140,143,152);stroke-width:1px;"/>
        <path d="M466.6,90C466.6,87.24 464.36,85 461.6,85L439.6,85C436.84,85 434.6,87.24 434.6,90L434.6,112C434.6,114.76 436.84,117 439.6,117L461.6,117C464.36,117 466.6,114.76 466.6,112L466.6,90Z" style="stroke:rgb(140,143,152);stroke-width:1px;"/>
    </g>
    <g>
        <g>
            <path d="M97,50C97,47.24 94.76,45 92,45L70,45C67.24,45 65,47.24 65,50L65,72C65,74.76 67.24,77 70,77L92,77C94.76,77 97,74.76 97,72L97,50Z" style="fill:rgb(246,246,246);stroke:rgb(140,143,152);stroke-width:1px;"/>
            <path d="M137,50C137,47.24 134.76,45 132,45L110,45C107.24,45 105,47.24 105,50L105,72C105,74.76 107.24,77 110,77L132,77C134.76,77 137,74.76 137,72L137,50Z" style="fill:rgb(246,246,246);stroke:rgb(140,143,152);stroke-width:1px;"/>
            <path d="M177,50C177,47.24 174.76,45 172,45L150,45C147.24,45 145,47.24 145,50L145,72C145,74.76 147.24,77 150,77L172,77C174.76,77 177,74.76 177,72L177,50Z" style="fill:rgb(246,246,246);stroke:rgb(140,143,152);stroke-width:1px;"/>
            <path d="M217,50C217,47.24 214.76,45 212,45L190,45C187.24,45 185,47.24 185,50L185,72C185,74.76 187.24,77 190,77L212,77C214.76,77 217,74.76 217,72L217,50Z" style="fill:rgb(246,246,246);stroke:rgb(140,143,152);stroke-width:1px;"/>
            <path d="M257,50C257,47.24 254.76,45 252,45L230,45C227.24,45 225,47.24 225,50L225,72C225,74.76 227.24,77 230,77L252,77C254.76,77 257,74.76 257,72L257,50Z" style="fill:rgb(246,246,246);stroke:rgb(140,143,152);stroke-width:1px;"/>
            <path d="M297,50C297,47.24 294.76,45 292,45L270,45C267.24,45 265,47.24 265,50L265,72C265,74.76 267.24,77 270,77L292,77C294.76,77 297,74.76 297,72L297,50Z" style="fill:rgb(246,246,246);stroke:rgb(140,143,152);stroke-width:1px;"/>
            <path d="M337,50C337,47.24 334.76,45 332,45L310,45C307.24,45 305,47.24 305,50L305,72C305,74.76 307.24,77 310,77L332,77C334.76,77 337,74.76 337,72L337,50Z" style="fill:rgb(246,246,246);stroke:rgb(140,143,152);stroke-width:1px;"/>
            <path d="M377,50C377,47.24 374.76,45 372,45L350,45C347.24,45 345,47.24 345,50L345,72C345,74.76 347.24,77 350,77L372,77C374.76,77 377,74.76 377,72L377,50Z" style="fill:rgb(246,246,246);stroke:rgb(140,143,152);stroke-width:1px;"/>
            <path d="M417,50C417,47.24 414.76,45 412,45L390,45C387.24,45 385,47.24 385,50L385,72C385,74.76 387.24,77 390,77L412,77C414.76,77 417,74.76 417,72L417,50Z" style="fill:rgb(246,246,246);stroke:rgb(140,143,152);stroke-width:1px;"/>
            <path d="M457,50C457,47.24 454.76,45 452,45L430,45C427.24,45 425,47.24 425,50L425,72C425,74.76 427.24,77 430,77L452,77C454.76,77 457,74.76 457,72L457,50Z" style="fill:rgb(246,246,246);stroke:rgb(140,143,152);stroke-width:1px;"/>
            <path d="M497,50C497,47.24 494.76,45 492,45L470,45C467.24,45 465,47.24 465,50L465,72C465,74.76 467.24,77 470,77L492,77C494.76,77 497,74.76 497,72L497,50Z" style="fill:rgb(246,246,246);stroke:rgb(140,143,152);stroke-width:1px;"/>
            <path d="M537,50C537,47.24 534.76,45 532,45L510,45C507.24,45 505,47.24 505,50L505,72C505,74.76 507.24,77 510,77L532,77C534.76,77 537,74.76 537,72L537,50Z" style="fill:rgb(246,246,246);stroke:rgb(140,143,152);stroke-width:1px;"/>
        </g>
        <path d="M127,130C127,127.24 124.76,125 122,125L100,125C97.24,125 95,127.24 95,130L95,152C95,154.76 97.24,157 100,157L122,157C124.76,157 127,154.76 127,152L127,130Z" style="fill:rgb(246,246,246);stroke:rgb(140,143,152);stroke-width:1px;"/>
        <path d="M167,130C167,127.24 164.76,125 162,125L140,125C137.24,125 135,127.24 135,130L135,152C135,154.76 137.24,157 140,157L162,157C164.76,157 167,154.76 167,152L167,130Z" style="fill:rgb(246,246,246);stroke:rgb(140,143,152);stroke-width:1px;"/>
        <path d="M207,130C207,127.24 204.76,125 202,125L180,125C177.24,125 175,127.24 175,130L175,152C175,154.76 177.24,157 180,157L202,157C204.76,157 207,154.76 207,152L207,130Z" style="fill:rgb(246,246,246);stroke:rgb(140,143,152);stroke-width:1px;"/>
        <path d="M247,130C247,127.24 244.76,125 242,125L220,125C217.24,125 215,127.24 215,130L215,152C215,154.76 217.24,157 220,157L242,157C244.76,157 247,154.76 247,152L247,130Z" style="fill:rgb(246,246,246);stroke:rgb(140,143,152);stroke-width:1px;"/>
        <path d="M287,130C287,127.24 284.76,125 282,125L260,125C257.24,125 255,127.24 255,130L255,152C255,154.76 257.24,157 260,157L282,157C284.76,157 287,154.76 287,152L287,130Z" style="fill:rgb(246,246,246);stroke:rgb(140,143,152);stroke-width:1px;"/>
        <path d="M327,130C327,127.24 324.76,125 322,125L300,125C297.24,125 295,127.24 295,130L295,152C295,154.76 297.24,157 300,157L322,157C324.76,157 327,154.76 327,152L327,130Z" style="fill:rgb(246,246,246);stroke:rgb(140,143,152);stroke-width:1px;"/>
        <path d="M367,130C367,127.24 364.76,125 362,125L340,125C337.24,125 335,127.24 335,130L335,152C335,154.76 337.24,157 340,157L362,157C364.76,157 367,154.76 367,152L367,130Z" style="fill:rgb(246,246,246);stroke:rgb(140,143,152);stroke-width:1px;"/>
        <path d="M407,130C407,127.24 404.76,125 402,125L380,125C377.24,125 375,127.24 375,130L375,152C375,154.76 377.24,157 380,157L402,157C404.76,157 407,154.76 407,152L407,130Z" style="fill:rgb(246,246,246);stroke:rgb(140,143,152);stroke-width:1px;"/>
        <path d="M447,130C447,127.24 444.76,125 442,125L420,125C417.24,125 415,127.24 415,130L415,152C415,154.76 417.24,157 420,157L442,157C444.76,157 447,154.76 447,152L447,130Z" style="fill:rgb(246,246,246);stroke:rgb(140,143,152);stroke-width:1px;"/>
        <path d="M487,130C487,127.24 484.76,125 482,125L460,125C457.24,125 455,127.24 455,130L455,152C455,154.76 457.24,157 460,157L482,157C484.76,157 487,154.76 487,152L487,130Z" style="fill:rgb(246,246,246);stroke:rgb(140,143,152);stroke-width:1px;"/>
    </g>
</svg>
